Coordinates
version=1
nRows=5
nColumns=63
inDegrees=yes

Units are S.I. units (second, meters, Newtons, ...)
If the header above contains a line with 'inDegrees', this indicates whether rotational values are in degrees (yes) or radians (no).

endheader
time	pelvis_tilt	pelvis_list	pelvis_rotation	pelvis_tx	pelvis_ty	pelvis_tz	hip_flexion_r	hip_adduction_r	hip_rotation_r	knee_angle_r	knee_angle_r_beta	ankle_angle_r	subtalar_angle_r	mtp_angle_r	hip_flexion_l	hip_adduction_l	hip_rotation_l	knee_angle_l	knee_angle_l_beta	ankle_angle_l	subtalar_angle_l	mtp_angle_l	L5_S1_Flex_Ext	L5_S1_Lat_Bending	L5_S1_axial_rotation	L4_L5_Flex_Ext	L4_L5_Lat_Bending	L4_L5_axial_rotation	L3_L4_Flex_Ext	L3_L4_Lat_Bending	L3_L4_axial_rotation	L2_L3_Flex_Ext	L2_L3_Lat_Bending	L2_L3_axial_rotation	L1_L2_Flex_Ext	L1_L2_Lat_Bending	L1_L2_axial_rotation	L1_T12_Flex_Ext	L1_T12_Lat_Bending	L1_T12_axial_rotation	Abs_r3	Abs_r2	Abs_r1	Abs_t1	Abs_t2	neck_flexion	neck_bending	neck_rotation	arm_flex_r	arm_add_r	arm_rot_r	elbow_flex_r	pro_sup_r	wrist_flex_r	wrist_dev_r	arm_flex_l	arm_add_l	arm_rot_l	elbow_flex_l	pro_sup_l	wrist_flex_l	wrist_dev_l
      6.30000000	     -2.67450712	      0.20190550	    103.17606473	      0.18800048	      0.69221152	      0.57262430	     -0.98873610	      1.21327060	     -9.75676382	      8.80414600	      0.15366134	     28.76499992	    -15.09562585	      0.00000000	     -1.81669504	     -1.28045651	      1.75103098	      7.23945726	      0.12635237	     31.15076411	     17.40979119	      0.00000000	     -0.69712261	      0.12630150	     -7.21212373	     -1.29462640	      0.16798099	     -7.66288146	     -1.14530273	      0.30708946	     -7.66288146	     -0.79674143	      0.30708946	     -6.31060826	     -0.64734805	      0.25755401	     -5.85985053	     -0.39833586	      0.19564102	     -5.40909280	     -4.97947708	      1.42874778	    -40.11166854	      0.00000000	      0.00000000	      6.48339777	      2.90176574	     22.86305639	     54.92003100	     21.22459886	    160.14050289	      0.09028961	      0.80174889	    -69.77430827	    -22.95759342	     -1.44348481	    -14.67681874	    -19.37828221	     96.57826086	     72.98357732	    -12.48257106	     18.53957697
      6.31666667	     -2.57719126	      0.36494306	    103.27601555	      0.18688818	      0.69237497	      0.57230376	     -1.17640761	      1.27232060	    -10.09655740	      8.84455200	      0.15436655	     28.87397845	    -14.88750201	      0.00000000	     -1.98865892	     -1.36045156	      1.97425601	      7.24532101	      0.12645471	     31.19513417	     17.28758142	      0.00000000	     -0.70169650	      0.12462307	     -7.22020467	     -1.30312058	      0.16574869	     -7.67146746	     -1.15281719	      0.30300854	     -7.67146746	     -0.80196893	      0.30300854	     -6.31767908	     -0.65159537	      0.25413137	     -5.86641629	     -0.40094938	      0.19304114	     -5.41515350	     -5.01214796	      1.40976112	    -40.15661230	      0.00000000	      0.00000000	      6.32530289	      3.43255427	     22.57653676	     54.85948992	     19.99932369	    158.90505592	      0.08915283	      0.79991189	    -69.77710264	    -23.17122135	     -1.53227801	    -14.43228278	    -20.36100665	     96.21464195	     78.56287061	    -11.85974764	     16.46160675
      6.33333333	     -2.47842047	      0.48434232	    103.30275484	      0.18558599	      0.69239186	      0.57204654	     -1.31805448	      1.30785765	    -10.29691369	      8.87074457	      0.15482370	     28.97225952	    -14.76262346	      0.00000000	     -2.10102324	     -1.41944420	      2.08199317	      7.29070670	      0.12724684	     31.30695417	     17.25702443	      0.00000000	     -0.70278409	      0.12869952	     -7.21848287	     -1.30514034	      0.17117036	     -7.66963805	     -1.15460398	      0.31292000	     -7.66963805	     -0.80321194	      0.31292000	     -6.31617251	     -0.65260531	      0.26244405	     -5.86501733	     -0.40157083	      0.19935555	     -5.41386215	     -5.01991649	      1.45587466	    -40.14703618	      0.00000000	      0.00000000	      5.89844804	      3.96368978	     22.60136880	     54.99361870	     18.79876241	    157.64124493	      0.08805776	      0.80068496	    -69.77511156	    -23.25546091	     -1.78836885	    -14.46756484	    -21.05212629	     95.85690665	     81.66228918	    -11.31688769	     13.68534572
      6.35000000	     -2.21188716	      0.41839203	    103.16955257	      0.18392383	      0.69202236	      0.57164389	     -1.24757842	      1.44033037	    -10.39333992	      8.84910371	      0.15444600	     29.03111996	    -14.53939159	      0.00000000	     -1.99274787	     -1.56872271	      2.14677720	      7.37587058	      0.12873323	     31.49336637	     17.13734169	      0.00000000	     -0.68587193	      0.16065267	     -7.16544660	     -1.27373276	      0.21366805	     -7.61328702	     -1.12681899	      0.39061090	     -7.61328702	     -0.78388303	      0.39061090	     -6.26976578	     -0.63690067	      0.32760292	     -5.82192537	     -0.39190722	      0.24885098	     -5.37408495	     -4.89911459	      1.81733512	    -39.85206437	      0.00000000	      0.00000000	      5.62761304	      4.19124904	     22.34489814	     55.38028200	     17.42818696	    156.46749395	      0.08776180	      0.82084891	    -69.76382472	    -23.23137349	     -2.05526638	    -14.18776471	    -21.71557854	     95.76770986	     84.27149337	    -11.14112507	     11.81132733
      6.36666667	     -1.85674252	      0.27977005	    102.96785922	      0.18213005	      0.69137036	      0.57073925	     -1.12571633	      1.65142303	    -10.22621460	      8.80432677	      0.15366449	     29.16103807	    -14.24414652	      0.00000000	     -1.85331053	     -1.78243210	      2.22615071	      7.42445339	      0.12958116	     31.76197705	     16.99835173	      0.00000000	     -0.66501163	      0.20753379	     -7.06207872	     -1.23499310	      0.27601994	     -7.50345863	     -1.09254761	      0.50459766	     -7.50345863	     -0.76004179	      0.50459766	     -6.17931888	     -0.61752980	      0.42320291	     -5.73793896	     -0.37998765	      0.32146984	     -5.29655904	     -4.75011158	      2.34766375	    -39.27716319	      0.00000000	      0.00000000	      5.41857175	      4.05340174	     21.80123971	     55.94595473	     15.83757136	    155.88073903	      0.08923089	      0.86271445	    -69.73685923	    -23.21881423	     -2.32861177	    -13.76170901	    -22.11077074	     95.95373490	     85.72103864	    -11.18074754	     10.98391663
